<svg width="112" height="112" viewBox="0 0 112 112" fill="none" xmlns="http://www.w3.org/2000/svg">
<g clip-path="url(#clip0_28_2)">
<path d="M54.7227 0.000862912C50.1554 0.0208551 45.7938 0.387807 41.956 1.02755C30.6503 2.90916 28.5976 6.84752 28.5976 14.1105V23.7027H55.3144V26.9002H28.5976H18.571C10.8064 26.9002 4.00742 31.2967 1.8808 39.6604C-0.572234 49.2472 -0.68104 55.2296 1.8808 65.2397C3.77992 72.6909 8.31529 78 16.0799 78H25.2658V66.5011C25.2658 58.1938 32.8956 50.866 41.956 50.866H68.6416C76.0699 50.866 82 45.1042 82 38.0764V14.1105C82 7.2897 75.8919 2.16592 68.6416 1.02755C64.0521 0.307837 59.29 -0.0191296 54.7227 0.000862912ZM40.2745 7.71571C43.0342 7.71571 45.2878 9.87342 45.2878 12.5265C45.2878 15.1701 43.0342 17.3079 40.2745 17.3079C37.5049 17.3079 35.2612 15.1701 35.2612 12.5265C35.2612 9.87342 37.5049 7.71571 40.2745 7.71571Z" fill="url(#paint0_linear_28_2)"/>
<path d="M85.619 24V36.5132C85.619 46.2144 77.8369 54.3797 68.9627 54.3797H42.3313C35.0365 54.3797 29 60.9782 29 68.6992V95.5319C29 103.169 35.2832 107.661 42.3313 109.851C50.7711 112.474 58.8645 112.948 68.9627 109.851C75.6751 107.797 82.2939 103.664 82.2939 95.5319V84.7923H55.6625V81.2124H82.2939H95.6252C103.374 81.2124 106.262 75.4999 108.956 66.9257C111.74 58.0987 111.622 49.6101 108.956 38.2867C107.041 30.1338 103.384 24 95.6252 24H85.619ZM70.6407 91.9521C73.4047 91.9521 75.6438 94.3456 75.6438 97.3055C75.6438 100.276 73.4047 102.692 70.6407 102.692C67.8867 102.692 65.6376 100.276 65.6376 97.3055C65.6376 94.3456 67.8867 91.9521 70.6407 91.9521Z" fill="url(#paint1_linear_28_2)"/>
</g>
<defs>
<linearGradient id="paint0_linear_28_2" x1="-3.32836e-07" y1="-2.72371e-07" x2="58.486" y2="52.9039" gradientUnits="userSpaceOnUse">
<stop stop-color="#5A9FD4"/>
<stop offset="1" stop-color="#306998"/>
</linearGradient>
<linearGradient id="paint1_linear_28_2" x1="70" y1="96.4025" x2="46.2979" y2="64.9766" gradientUnits="userSpaceOnUse">
<stop stop-color="#FFD43B"/>
<stop offset="1" stop-color="#FFE873"/>
</linearGradient>
<clipPath id="clip0_28_2">
<rect width="111.161" height="111.67" fill="white"/>
</clipPath>
</defs>
</svg>
