<svg width="32" height="32" viewBox="0 0 32 32" fill="none" xmlns="http://www.w3.org/2000/svg">
<path d="M27.2259 15.7188H17.1614C16.6969 15.7188 16.3872 15.4063 16.3872 14.9375V6.57812C16.3872 6.1875 16.6969 5.875 17.0066 5.79687L27.0711 4C27.3033 4 27.5356 4 27.6904 4.15625C27.9227 4.3125 28.0001 4.54687 28.0001 4.78125V14.9375C28.0001 15.4063 27.6904 15.7188 27.2259 15.7188Z" fill="#00ADEF"/>
<path d="M14.0645 15.7188H4.77419C4.30968 15.7188 4 15.4063 4 14.9375V8.6875C4 8.29688 4.30968 7.98438 4.61935 7.90625L13.9097 6.34375C14.1419 6.34375 14.3742 6.34375 14.529 6.5C14.7613 6.65625 14.8387 6.89062 14.8387 7.125V14.9375C14.8387 15.4063 14.529 15.7188 14.0645 15.7188Z" fill="#00ADEF"/>
<path d="M27.2259 29C27.1485 29 27.1485 29 27.0711 29L17.0066 27.2031C16.6195 27.125 16.3872 26.8125 16.3872 26.4219V18.0625C16.3872 17.5937 16.6969 17.2812 17.1614 17.2812H27.2259C27.6904 17.2812 28.0001 17.5937 28.0001 18.0625V28.2188C28.0001 28.4531 27.9227 28.6875 27.6904 28.8437C27.613 28.9219 27.3808 29 27.2259 29Z" fill="#00ADEF"/>
<path d="M14.0645 26.6562C13.9871 26.6562 13.9871 26.6562 13.9097 26.6562L4.61935 25.0938C4.30968 25.0156 4 24.7031 4 24.3125V18.0625C4 17.5937 4.30968 17.2812 4.77419 17.2812H14.0645C14.529 17.2812 14.8387 17.5937 14.8387 18.0625V25.875C14.8387 26.1094 14.7613 26.3437 14.529 26.5C14.4516 26.5781 14.2194 26.6562 14.0645 26.6562Z" fill="#00ADEF"/>
</svg>
